<svg xmlns="http://www.w3.org/2000/svg" viewBox="0 0 512 512" width="512" height="512"><g fill="#397ff6"><path d="M424 216h-16c-13.234 0-24 10.766-24 24v56c0 6.476-3.874 12.052-9.42 14.568C370.545 297.512 358.363 288 344 288h-64v-32h56c17.645 0 32-14.355 32-32V32c0-17.645-14.355-32-32-32H176c-17.645 0-32 14.355-32 32v192c0 17.645 14.355 32 32 32h56v32h-64c-14.363 0-26.545 9.512-30.58 22.568-5.546-2.515-9.42-8.092-9.42-14.568v-56c0-13.234-10.766-24-24-24H88a8 8 0 0 0 0 16h16c4.411 0 8 3.589 8 8v56c0 15.177 10.623 27.91 24.822 31.178C140.09 341.377 152.823 352 168 352h64v112h-56c-13.234 0-24 10.766-24 24s10.766 24 24 24 24-10.766 24-24a23.89 23.89 0 0 0-1.376-8h114.752a23.89 23.89 0 0 0-1.376 8c0 13.234 10.766 24 24 24s24-10.766 24-24-10.766-24-24-24h-56V352h64c15.177 0 27.91-10.623 31.178-24.822C389.377 323.91 400 311.177 400 296v-56c0-4.411 3.589-8 8-8h16a8 8 0 0 0 0-16zM176 496c-4.411 0-8-3.589-8-8s3.589-8 8-8 8 3.589 8 8-3.589 8-8 8zm160-16c4.411 0 8 3.589 8 8s-3.589 8-8 8-8-3.589-8-8 3.589-8 8-8zM176 240c-8.822 0-16-7.178-16-16V32c0-8.822 7.178-16 16-16h160c8.822 0 16 7.178 16 16v192c0 8.822-7.178 16-16 16H176zm88 16v32h-16v-32h16zm0 208h-16V352h16v112zm80-128H168c-8.822 0-16-7.178-16-16s7.178-16 16-16h176c8.822 0 16 7.178 16 16s-7.178 16-16 16z"/><path d="M328 64a8 8 0 0 0 8-8V40a8 8 0 0 0-16 0v16a8 8 0 0 0 8 8zm8 24a8 8 0 0 0-16 0v48a8 8 0 0 0 16 0V88z"/></g></svg>