<svg xmlns="http://www.w3.org/2000/svg" viewBox="0 0 511 511" width="512" height="512"><g fill="#397ff6"><path d="M436.166 74.834C387.908 26.577 323.747 0 255.5 0S123.092 26.577 74.834 74.834C26.577 123.092 0 187.254 0 255.5s26.577 132.408 74.834 180.666C123.092 484.423 187.253 511 255.5 511s132.408-26.577 180.666-74.834C484.423 387.908 511 323.747 511 255.5s-26.577-132.408-74.834-180.666zm-10.607 350.725C380.135 470.984 319.74 496 255.5 496s-124.635-25.016-170.059-70.441C40.016 380.135 15 319.74 15 255.5S40.016 130.865 85.441 85.441C130.865 40.016 191.26 15 255.5 15s124.635 25.016 170.059 70.441C470.984 130.865 496 191.26 496 255.5s-25.016 124.635-70.441 170.059z"/><path d="M144.856 78.859l8.148 14.114a7.497 7.497 0 0 0 10.245 2.745 7.5 7.5 0 0 0 2.745-10.245l-8.161-14.135C184.911 56.92 215.52 48.304 248 47.15V63.5a7.5 7.5 0 0 0 15 0V47.135c31.712 1.123 62.433 9.37 90.205 24.134l-8.2 14.204a7.5 7.5 0 0 0 12.99 7.5l8.193-14.19a211.463 211.463 0 0 1 5.145 3.326 7.5 7.5 0 0 0 8.345-12.465C342.888 45.017 299.949 32 255.5 32c-59.699 0-115.825 23.248-158.039 65.462C55.248 139.675 32 195.801 32 255.5c0 55.077 20.209 107.99 56.905 148.994a7.481 7.481 0 0 0 5.591 2.498 7.5 7.5 0 0 0 5.586-12.502 208.556 208.556 0 0 1-21.287-28.31l14.178-8.186a7.5 7.5 0 0 0-7.5-12.99l-14.183 8.188C56.606 325.522 48.283 294.737 47.147 263H63.5a7.5 7.5 0 0 0 0-15H47.149c1.155-32.48 9.771-63.089 24.188-90.166l14.135 8.161a7.497 7.497 0 0 0 10.245-2.745 7.5 7.5 0 0 0-2.745-10.245l-14.114-8.149a210.162 210.162 0 0 1 65.998-65.997zm296.501 52.466a7.5 7.5 0 1 0-12.465 8.344 209.35 209.35 0 0 1 3.324 5.143l-14.19 8.193a7.5 7.5 0 0 0 7.5 12.99l14.204-8.2c14.764 27.772 23.011 58.493 24.135 90.205H447.5a7.5 7.5 0 0 0 0 15h16.351c-1.155 32.48-9.771 63.089-24.188 90.166l-14.135-8.161a7.5 7.5 0 0 0-7.5 12.99l14.114 8.149a210.128 210.128 0 0 1-65.997 65.997l-8.149-14.114a7.5 7.5 0 0 0-12.99 7.5l8.161 14.135C326.089 454.08 295.48 462.696 263 463.851V447.5a7.5 7.5 0 0 0-15 0v16.354c-31.57-1.146-62.468-9.492-90.183-24.163l8.178-14.164a7.5 7.5 0 0 0-12.99-7.5l-8.18 14.167a206.335 206.335 0 0 1-20.609-14.708 7.5 7.5 0 1 0-9.452 11.648 221.566 221.566 0 0 0 28.774 19.785c.072.045.138.094.212.137.063.036.129.06.192.094C177.676 468.551 216.247 479 255.5 479c59.699 0 115.825-23.248 158.039-65.462C455.752 371.325 479 315.199 479 255.5c0-44.447-13.017-87.386-37.643-124.175zm-46.866-31.242a210.81 210.81 0 0 1 15.451 15.344 7.479 7.479 0 0 0 5.556 2.459 7.5 7.5 0 0 0 5.551-12.54 225.66 225.66 0 0 0-16.556-16.441 7.5 7.5 0 1 0-10.002 11.178z"/><path d="M232 255.5c0 12.958 10.542 23.5 23.5 23.5 10.336 0 19.128-6.71 22.266-16h19.469c3.138 9.29 11.93 16 22.266 16h56c12.958 0 23.5-10.542 23.5-23.5S388.458 232 375.5 232h-56c-10.336 0-19.128 6.71-22.266 16h-19.469a23.605 23.605 0 0 0-14.766-14.766v-19.469c9.29-3.138 16-11.93 16-22.266v-80c0-12.958-10.542-23.5-23.5-23.5S232 98.542 232 111.5v80c0 10.336 6.71 19.128 16 22.266v19.469c-9.29 3.137-16 11.929-16 22.265zm87.5-8.5h56c4.687 0 8.5 3.813 8.5 8.5s-3.813 8.5-8.5 8.5h-56c-4.687 0-8.5-3.813-8.5-8.5s3.813-8.5 8.5-8.5zm-64 17c-4.687 0-8.5-3.813-8.5-8.5s3.813-8.5 8.5-8.5 8.5 3.813 8.5 8.5-3.813 8.5-8.5 8.5zM247 111.5c0-4.687 3.813-8.5 8.5-8.5s8.5 3.813 8.5 8.5v80c0 4.687-3.813 8.5-8.5 8.5s-8.5-3.813-8.5-8.5v-80z"/></g></svg>