<svg xmlns="http://www.w3.org/2000/svg" viewBox="0 0 511 511" width="512" height="512"><g fill="#397ff6"><path d="M415.5 40h-3.754l-14.824-24.707C391.262 5.86 380.913 0 369.912 0H141.088c-11.001 0-21.351 5.86-27.011 15.293L99.253 40H95.5C82.542 40 72 50.542 72 63.5S82.542 87 95.5 87h1.045l30.36 402.269c.919 12.186 11.212 21.731 23.433 21.731h210.324c12.221 0 22.514-9.545 23.433-21.731L414.455 87h1.045c12.958 0 23.5-10.542 23.5-23.5S428.458 40 415.5 40zM126.94 23.011C129.905 18.07 135.326 15 141.088 15h228.823c5.762 0 11.184 3.07 14.148 8.011L394.253 40H116.747l10.193-16.989zM395.111 144h-43.613a7.5 7.5 0 0 0 0 15h42.481l-19.396 257h-39.082a7.5 7.5 0 0 0 0 15h37.95l-4.312 57.14c-.333 4.408-4.056 7.86-8.476 7.86H150.338c-4.42 0-8.143-3.453-8.476-7.86L137.549 431H303.5a7.5 7.5 0 0 0 0-15H136.417l-19.396-257h202.475a7.5 7.5 0 0 0 0-15H115.889l-4.302-57h287.825l-4.301 57zM415.5 72h-320c-4.687 0-8.5-3.813-8.5-8.5s3.813-8.5 8.5-8.5h311.992l.015.001.015-.001h7.978c4.687 0 8.5 3.813 8.5 8.5s-3.813 8.5-8.5 8.5z"/><path d="M307.88 249.96a7.5 7.5 0 0 0-2.924 10.196c4.608 8.315 7.044 17.77 7.044 27.344 0 31.154-25.346 56.5-56.5 56.5S199 318.654 199 287.5s25.346-56.5 56.5-56.5c9.943 0 19.717 2.616 28.266 7.566a7.5 7.5 0 0 0 7.516-12.981C280.452 219.314 268.079 216 255.5 216c-39.425 0-71.5 32.075-71.5 71.5s32.075 71.5 71.5 71.5 71.5-32.075 71.5-71.5c0-12.111-3.086-24.081-8.924-34.615a7.503 7.503 0 0 0-10.196-2.925z"/></g></svg>