<svg xmlns="http://www.w3.org/2000/svg" viewBox="0 0 512 512" width="512" height="512"><g fill="#397ff6"><path d="M432 132.002a8 8 0 0 0-8 8V156a8 8 0 0 0 16 0v-15.998a8 8 0 0 0-8-8z"/><path d="M512 196c0-26.073-16.178-49.654-40-59.329V52c0-13.233-10.766-24-24-24h-16c-.066 0-.13.008-.195.01a8.66 8.66 0 0 0-.58.029c-.102.01-.201.028-.302.042-.159.021-.317.041-.475.072-.116.023-.228.054-.342.082-.139.034-.279.066-.417.107-.12.036-.237.081-.355.123-.128.045-.256.088-.382.14-.123.051-.241.109-.36.166-.116.055-.233.106-.347.167-.131.07-.257.149-.384.226-.096.059-.194.113-.289.175a8.224 8.224 0 0 0-.442.325c-.059.045-.122.084-.18.132C379.452 68.468 316.296 108 208 108H56c-30.878 0-56 25.121-56 56v64c0 30.879 25.122 56 56 56h32.903l20.618 171.813C111.448 471.882 125.107 484 141.292 484h31.656a32.022 32.022 0 0 0 23.938-10.764 32.02 32.02 0 0 0 7.834-25.049L185.017 284H208c108.296 0 171.452 39.532 218.949 78.204.186.151.377.293.572.425.031.021.065.039.096.059.176.115.353.226.535.325.07.039.143.071.215.108.148.076.297.15.448.216.084.037.171.068.256.102.144.057.288.111.434.159a8.205 8.205 0 0 0 .724.198c.092.021.185.042.279.059.165.031.331.055.497.076.08.01.159.022.24.03.249.023.499.038.749.038h16.005c13.234 0 24-10.767 24-24v-84.671C495.822 245.653 512 222.071 512 196zM188.834 450.094c.553 4.606-.838 9.055-3.917 12.524-3.079 3.471-7.33 5.382-11.969 5.382h-31.656c-8.092 0-14.921-6.059-15.886-14.094l-.229-1.906H160a8 8 0 0 0 0-16h-36.743l-18.24-152h63.885l19.932 166.094zM448 348h-8V188.002a8 8 0 0 0-16 0v151.483c-43.04-32.917-98.768-64.032-184-70.326V164a8 8 0 0 0-16 0v104.283a449.792 449.792 0 0 0-16-.283H56c-22.056 0-40-17.944-40-40v-64c0-22.056 17.944-40 40-40h152c5.442 0 10.773-.097 16-.283V132a8 8 0 0 0 16 0v-9.159c85.232-6.294 140.96-37.41 184-70.326v55.486a8 8 0 0 0 16 0V44h8c4.411 0 8 3.589 8 8v90.196c-.002.12-.003.239 0 .358V340c0 4.411-3.589 8-8 8zm24-110.443v-83.114c14.528 8.456 24 24.276 24 41.557 0 17.279-9.472 33.101-24 41.557z"/></g></svg>