<?xml version="1.0" encoding="UTF-8"?>
<svg width="13px" height="13px" viewBox="0 0 13 13" version="1.1" xmlns="http://www.w3.org/2000/svg" xmlns:xlink="http://www.w3.org/1999/xlink">
    <title>phone</title>
    <g id="Page-1" stroke="none" stroke-width="1" fill="none" fill-rule="evenodd">
        <g id="phone" fill="#FFFFFF" fill-rule="nonzero">
            <path d="M11.9568854,8.53301042 C11.160974,8.53301042 10.3794844,8.40852865 9.63892448,8.16379687 C9.27604167,8.04002604 8.82994531,8.15357292 8.60847135,8.38103906 L7.14675,9.48448177 C5.45157031,8.57959375 4.4073724,7.53573437 3.51484115,5.85328385 L4.58581771,4.42964844 C4.8640651,4.15177344 4.96386719,3.74586198 4.84429427,3.3650026 C4.59851302,2.62054948 4.47365885,1.83943229 4.47365885,1.04318229 C4.47369271,0.467966146 4.00572656,0 3.43054427,0 L1.04314844,0 C0.467966146,0 0,0.467966146 0,1.04314844 C0,7.6362474 5.36378646,13 11.9568854,13 C12.5320677,13 13.0000339,12.5320339 13.0000339,11.9568516 L13.0000339,9.576125 C13.0000339,9.00097656 12.5320339,8.53301042 11.9568854,8.53301042 Z" id="Path"></path>
        </g>
    </g>
</svg>