<?xml version="1.0" encoding="UTF-8"?>
<svg width="13px" height="13px" viewBox="0 0 13 13" version="1.1" xmlns="http://www.w3.org/2000/svg" xmlns:xlink="http://www.w3.org/1999/xlink">
    <title>insta_black</title>
    <defs>
        <filter id="filter-1">
            <feColorMatrix in="SourceGraphic" type="matrix" values="0 0 0 0 1.000000 0 0 0 0 1.000000 0 0 0 0 1.000000 0 0 0 1.000000 0"></feColorMatrix>
        </filter>
    </defs>
    <g id="Page-1" stroke="none" stroke-width="1" fill="none" fill-rule="evenodd">
        <g filter="url(#filter-1)" id="insta_black">
            <g>
                <path d="M9.48101807,0 L3.51898193,0 C1.57858276,0 0,1.57858276 0,3.51898193 L0,9.48111724 C0,11.4214172 1.57858276,13 3.51898193,13 L9.48111724,13 C11.4214172,13 13,11.4214172 13,9.48111724 L13,3.51898193 C13,1.57858276 11.4214172,0 9.48101807,0 Z M12.2378845,9.48111724 C12.2378845,11.0011826 11.0011826,12.2378845 9.48101807,12.2378845 L3.51898193,12.2378845 C1.99881744,12.2378845 0.762115479,11.0011826 0.762115479,9.48111724 L0.762115479,3.51898193 C0.762115479,1.99881744 1.99881744,0.762115479 3.51898193,0.762115479 L9.48111724,0.762115479 C11.0011826,0.762115479 12.2378845,1.99881744 12.2378845,3.51898193 L12.2378845,9.48111724 Z" id="Shape" fill="#000000" fill-rule="nonzero"></path>
                <path d="M6.5,2.94541168 C4.53996278,2.94541168 2.94541168,4.53996278 2.94541168,6.5 C2.94541168,8.46003722 4.53996278,10.0545883 6.5,10.0545883 C8.46003722,10.0545883 10.0545883,8.46003722 10.0545883,6.5 C10.0545883,4.53996278 8.46003722,2.94541168 6.5,2.94541168 Z M6.5,9.29247285 C4.96029663,9.29247285 3.70752715,8.03980254 3.70752715,6.5 C3.70752715,4.96029663 4.96029663,3.70752715 6.5,3.70752715 C8.03980254,3.70752715 9.29247285,4.96029663 9.29247285,6.5 C9.29247285,8.03980254 8.03980254,9.29247285 6.5,9.29247285 Z" id="Shape" fill="#000000" fill-rule="nonzero"></path>
                <path d="M10.1395874,1.68302154 C9.56036377,1.68302154 9.08924864,2.15423584 9.08924864,2.7333603 C9.08924864,3.31258393 9.56036377,3.78379823 10.1395874,3.78379823 C10.718811,3.78379823 11.1900253,3.31258393 11.1900253,2.7333603 C11.1900253,2.15413666 10.718811,1.68302154 10.1395874,1.68302154 Z M10.1395874,3.02158355 C9.98069764,3.02158355 9.85136415,2.89225005 9.85136415,2.7333603 C9.85136415,2.57437134 9.98069764,2.44513702 10.1395874,2.44513702 C10.2985764,2.44513702 10.4279099,2.57437134 10.4279099,2.7333603 C10.4279099,2.89225005 10.2985764,3.02158355 10.1395874,3.02158355 Z" id="Shape" fill="#000000" fill-rule="nonzero"></path>
            </g>
        </g>
    </g>
</svg>