<?xml version="1.0" encoding="UTF-8"?>
<svg width="13px" height="13px" viewBox="0 0 13 13" version="1.1" xmlns="http://www.w3.org/2000/svg" xmlns:xlink="http://www.w3.org/1999/xlink">
    <title>linkedin</title>
    <g id="Page-1" stroke="none" stroke-width="1" fill="none" fill-rule="evenodd">
        <g id="linkedin" fill="#FFFFFF" fill-rule="nonzero">
            <path d="M12.99675,13 L12.99675,12.9994583 L13,12.9994583 L13,8.23170833 C13,5.89929167 12.497875,4.10258333 9.771125,4.10258333 C8.46029167,4.10258333 7.580625,4.82191667 7.2215,5.503875 L7.18358333,5.503875 L7.18358333,4.32033333 L4.59820833,4.32033333 L4.59820833,12.9994583 L7.29029167,12.9994583 L7.29029167,8.701875 C7.29029167,7.57033333 7.50479167,6.47616667 8.90608333,6.47616667 C10.2867917,6.47616667 10.307375,7.7675 10.307375,8.77445833 L10.307375,13 L12.99675,13 Z" id="Path"></path>
            <polygon id="Path" points="0.2145 4.320875 2.90983333 4.320875 2.90983333 13 0.2145 13"></polygon>
            <path d="M1.56108333,0 C0.699291667,0 0,0.699291667 0,1.56108333 C0,2.422875 0.699291667,3.13679167 1.56108333,3.13679167 C2.422875,3.13679167 3.12216667,2.422875 3.12216667,1.56108333 C3.121625,0.699291667 2.42233333,0 1.56108333,0 Z" id="Path"></path>
        </g>
    </g>
</svg>