<?xml version="1.0" encoding="UTF-8"?>
<svg width="13px" height="10px" viewBox="0 0 13 10" version="1.1" xmlns="http://www.w3.org/2000/svg" xmlns:xlink="http://www.w3.org/1999/xlink">
    <title>mail</title>
    <g id="Page-1" stroke="none" stroke-width="1" fill="none" fill-rule="evenodd">
        <g id="mail" fill="#FFFFFF" fill-rule="nonzero">
            <path d="M12.9437229,0.933354978 C12.9437229,0.918554113 12.9539091,0.904147186 12.9532659,0.889515152 L9.00033333,4.69834632 L12.9485065,8.38550649 C12.9508139,8.35916883 12.9437229,8.33260606 12.9437229,8.30570563 L12.9437229,0.933354978 L12.9437229,0.933354978 Z" id="Path"></path>
            <path d="M8.39693074,5.28447186 L6.78324242,6.83704329 C6.70158442,6.91560606 6.59612121,6.955 6.49060173,6.955 C6.38727706,6.955 6.28395238,6.91729437 6.20285714,6.84171429 L4.59355844,5.34209957 L0.61961039,9.17254113 C0.716238095,9.20726407 0.81995671,9.23422078 0.928571429,9.23422078 L12.0526883,9.23422078 C12.2139784,9.23422078 12.3652511,9.18509091 12.4967706,9.11181818 L8.39693074,5.28447186 Z" id="Path"></path>
            <path d="M6.48598701,5.95169264 L12.5186623,0.140467532 C12.3820779,0.0592597403 12.2230952,0.00478354978 12.0526883,0.00478354978 L0.928571429,0.00478354978 C0.706670996,0.00478354978 0.503341991,0.0909437229 0.344978355,0.222350649 L6.48598701,5.95169264 Z" id="Path"></path>
            <path d="M0,1.07489177 L0,8.30559307 C0,8.38860173 0.0190779221,8.46862771 0.0397878788,8.54510823 L3.96443723,4.76576623 L0,1.07489177 Z" id="Path"></path>
        </g>
    </g>
</svg>