<svg xmlns="http://www.w3.org/2000/svg" viewBox="0 0 510.349 510.349" width="512" height="512"><g fill="#397ff6"><path d="M394.548 359.759a33.215 33.215 0 0 0 7.349-5.534c11.927-11.926 11.969-30.375 12.01-48.215.026-11.375.054-23.137 3.453-31.334 3.175-7.657 10.877-15.307 19.032-23.406 12.921-12.833 26.282-26.103 26.282-43.771 0-17.667-13.361-30.938-26.282-43.771-8.154-8.099-15.856-15.749-19.032-23.406-3.399-8.197-3.426-19.958-3.452-31.333-.041-17.84-.083-36.288-12.009-48.214-11.926-11.927-30.375-11.969-48.215-12.01-11.375-.026-23.137-.054-31.334-3.453-7.657-3.175-15.307-10.877-23.406-19.032C286.112 13.361 272.842 0 255.174 0c-17.667 0-30.938 13.361-43.771 26.282-8.099 8.154-15.749 15.856-23.406 19.032-8.197 3.399-19.959 3.426-31.333 3.452-17.84.041-36.287.083-48.213 12.009-11.927 11.926-11.97 30.374-12.011 48.215-.026 11.375-.053 23.136-3.452 31.333-3.175 7.657-10.877 15.307-19.032 23.406-12.921 12.833-26.282 26.103-26.282 43.771 0 17.667 13.361 30.938 26.282 43.771 8.154 8.099 15.856 15.749 19.031 23.406 3.399 8.197 3.426 19.958 3.452 31.333.041 17.84.083 36.288 12.009 48.214a33.262 33.262 0 0 0 7.355 5.537L67.684 443.1a7.498 7.498 0 0 0 5.607 11.197l57.305 6.834 34.572 46.211a7.5 7.5 0 0 0 12.5-.743l56.611-98.054c6.35 3.923 13.205 6.455 20.894 6.455 7.688 0 14.544-2.532 20.893-6.455l56.612 98.054a7.496 7.496 0 0 0 6.496 3.75 7.5 7.5 0 0 0 6.004-3.007l34.572-46.211 57.305-6.834a7.502 7.502 0 0 0 5.607-11.197l-48.114-83.341zM170.366 489.248l-29.684-39.677a7.501 7.501 0 0 0-5.117-2.955l-49.203-5.868 43.923-76.073c8.347 1.516 17.439 1.538 26.378 1.558 7.133.017 14.418.034 20.882.883l-31.009 53.706a7.5 7.5 0 0 0 12.99 7.5l32.577-56.421c.014-.025.024-.05.038-.075 6.286 3.832 12.623 10.208 19.261 16.892 3.569 3.593 7.172 7.22 10.894 10.585l-51.93 89.945zm51.68-111.101c-8.784-8.844-17.868-17.99-28.302-22.317-10.94-4.537-24.211-4.567-37.045-4.597-15.477-.036-30.096-.07-37.644-7.617-7.547-7.547-7.58-22.165-7.615-37.642-.029-12.834-.06-26.105-4.596-37.045-4.327-10.435-13.473-19.518-22.317-28.303-10.743-10.67-21.852-21.703-21.852-33.127 0-11.425 11.109-22.458 21.853-33.128 8.844-8.784 17.99-17.868 22.317-28.302 4.537-10.94 4.567-24.211 4.597-37.045.036-15.477.069-30.096 7.617-37.644 7.547-7.547 22.165-7.58 37.641-7.615 12.834-.029 26.105-.06 37.045-4.596 10.435-4.327 19.518-13.473 28.302-22.317C232.717 26.109 243.75 15 255.174 15c11.425 0 22.458 11.109 33.128 21.853 8.784 8.844 17.868 17.99 28.302 22.317 10.94 4.537 24.211 4.567 37.045 4.597 15.477.036 30.096.07 37.643 7.617 7.547 7.547 7.581 22.165 7.616 37.642.029 12.834.06 26.105 4.596 37.045 4.327 10.435 13.473 19.518 22.317 28.303 10.743 10.67 21.852 21.703 21.852 33.127 0 11.425-11.109 22.458-21.853 33.128-8.844 8.784-17.99 17.868-22.317 28.302-4.537 10.94-4.567 24.211-4.597 37.045-.036 15.477-.07 30.096-7.617 37.643-7.547 7.547-22.165 7.581-37.642 7.616-12.834.029-26.105.06-37.045 4.596-10.435 4.327-19.518 13.473-28.303 22.317-10.667 10.743-21.7 21.852-33.125 21.852-11.424 0-22.458-11.109-33.128-21.853zm152.738 68.47a7.497 7.497 0 0 0-5.117 2.955l-29.684 39.677-51.931-89.946c3.721-3.364 7.324-6.991 10.893-10.584 7.151-7.2 13.952-14.042 20.717-17.732.127.31.268.617.44.915l32.577 56.421a7.497 7.497 0 0 0 10.245 2.745 7.5 7.5 0 0 0 2.745-10.245l-31.127-53.91c6.016-.645 12.64-.663 19.141-.677 8.941-.021 18.034-.042 26.383-1.559l43.92 76.073-49.202 5.867z"/><path d="M390.674 207.5c0-74.715-60.785-135.5-135.5-135.5s-135.5 60.785-135.5 135.5S180.459 343 255.174 343s135.5-60.785 135.5-135.5zM255.174 328c-66.444 0-120.5-54.056-120.5-120.5S188.73 87 255.174 87s120.5 54.056 120.5 120.5S321.618 328 255.174 328z"/><path d="M255.174 104c-57.07 0-103.5 46.43-103.5 103.5 0 21.84 6.723 42.725 19.441 60.397a7.5 7.5 0 0 0 12.175-8.761c-10.87-15.104-16.616-32.959-16.616-51.635 0-48.799 39.701-88.5 88.5-88.5s88.5 39.701 88.5 88.5-39.701 88.5-88.5 88.5c-15.563 0-30.863-4.093-44.249-11.837a7.501 7.501 0 0 0-7.512 12.984c15.665 9.063 33.563 13.854 51.76 13.854 57.07 0 103.5-46.43 103.5-103.5S312.245 104 255.174 104z"/><path d="M311.674 207.5a7.5 7.5 0 0 0 15 0c0-39.425-32.075-71.5-71.5-71.5a7.5 7.5 0 0 0 0 15c31.155 0 56.5 25.346 56.5 56.5z"/></g></svg>