<svg width="40" height="40" viewBox="0 0 40 40" fill="none" xmlns="http://www.w3.org/2000/svg">
<g clip-path="url(#clip0)">
<path d="M12.8023 18.4362C11.8171 18.1526 10.8319 18.0087 9.87359 18.0087C8.39371 18.0087 7.15886 18.3468 6.20137 18.761C7.12446 15.3816 9.34197 9.55063 13.7594 8.89398C14.1685 8.83314 14.5037 8.53733 14.6153 8.13914L15.5808 4.68595C15.6622 4.39392 15.6139 4.08133 15.4474 3.8279C15.2808 3.57447 15.0131 3.40537 14.7131 3.36425C14.3871 3.31978 14.0548 3.29712 13.7254 3.29712C8.42308 3.29712 3.17195 8.83146 0.956119 16.7558C-0.344598 21.4048 -0.726002 28.3943 2.47796 32.7936C4.27085 35.2553 6.88655 36.5699 10.2525 36.7012C10.2663 36.7016 10.2797 36.7021 10.2936 36.7021C14.4467 36.7021 18.1294 33.9051 19.2497 29.901C19.9189 27.5072 19.6164 24.9969 18.3971 22.8305C17.1908 20.6886 15.204 19.1273 12.8023 18.4362Z" fill="#397ff6"/>
<path d="M38.7995 22.831C37.5932 20.6886 35.6065 19.1273 33.2048 18.4362C32.2196 18.1526 31.2344 18.0087 30.2765 18.0087C28.7966 18.0087 27.5613 18.3468 26.6038 18.761C27.5269 15.3816 29.7444 9.55063 34.1622 8.89398C34.5713 8.83314 34.9062 8.53733 35.0182 8.13914L35.9837 4.68595C36.0651 4.39392 36.0168 4.08133 35.8502 3.8279C35.6841 3.57447 35.4164 3.40537 35.116 3.36425C34.7904 3.31978 34.4581 3.29712 34.1283 3.29712C28.8259 3.29712 23.5748 8.83146 21.3586 16.7558C20.0583 21.4048 19.6769 28.3943 22.8813 32.7945C24.6737 35.2557 27.2898 36.5707 30.6553 36.7016C30.6692 36.7021 30.6826 36.7025 30.6969 36.7025C34.8495 36.7025 38.5327 33.9055 39.653 29.9014C40.3214 27.5077 40.0184 24.9969 38.7995 22.831Z" fill="#397ff6"/>
</g>
<defs>
<clipPath id="clip0">
<rect width="40.0004" height="40" fill="white"/>
</clipPath>
</defs>
</svg>
